<mxfile host="Electron" agent="Mozilla/5.0 (Windows NT 10.0; Win64; x64) AppleWebKit/537.36 (KHTML, like Gecko) draw.io/24.7.17 Chrome/128.0.6613.36 Electron/32.0.1 Safari/537.36" version="24.7.17">
  <diagram name="Page-1" id="TqO0XknMDxeJT55NkYOL">
    <mxGraphModel dx="1430" dy="825" grid="1" gridSize="10" guides="1" tooltips="1" connect="1" arrows="1" fold="1" page="1" pageScale="1" pageWidth="850" pageHeight="1100" math="1" shadow="0">
      <root>
        <mxCell id="0" />
        <mxCell id="1" parent="0" />
        <mxCell id="89ghsDv7PfAujkezo9FC-46" value="" style="rounded=1;whiteSpace=wrap;html=1;dashed=1;" vertex="1" parent="1">
          <mxGeometry x="640" y="42" width="160" height="400" as="geometry" />
        </mxCell>
        <mxCell id="89ghsDv7PfAujkezo9FC-45" value="" style="rounded=1;whiteSpace=wrap;html=1;dashed=1;" vertex="1" parent="1">
          <mxGeometry y="42" width="160" height="400" as="geometry" />
        </mxCell>
        <mxCell id="89ghsDv7PfAujkezo9FC-12" style="edgeStyle=orthogonalEdgeStyle;rounded=0;orthogonalLoop=1;jettySize=auto;html=1;entryX=0;entryY=0.5;entryDx=0;entryDy=0;" edge="1" parent="1" source="89ghsDv7PfAujkezo9FC-1" target="89ghsDv7PfAujkezo9FC-4">
          <mxGeometry relative="1" as="geometry" />
        </mxCell>
        <mxCell id="89ghsDv7PfAujkezo9FC-1" value="$$q_0$$" style="ellipse;whiteSpace=wrap;html=1;" vertex="1" parent="1">
          <mxGeometry x="40" y="82" width="80" height="80" as="geometry" />
        </mxCell>
        <mxCell id="89ghsDv7PfAujkezo9FC-19" style="edgeStyle=orthogonalEdgeStyle;rounded=0;orthogonalLoop=1;jettySize=auto;html=1;" edge="1" parent="1" source="89ghsDv7PfAujkezo9FC-2">
          <mxGeometry relative="1" as="geometry">
            <mxPoint x="360" y="242" as="targetPoint" />
          </mxGeometry>
        </mxCell>
        <mxCell id="89ghsDv7PfAujkezo9FC-2" value="$$q_1$$" style="ellipse;whiteSpace=wrap;html=1;" vertex="1" parent="1">
          <mxGeometry x="40" y="202" width="80" height="80" as="geometry" />
        </mxCell>
        <mxCell id="89ghsDv7PfAujkezo9FC-29" style="edgeStyle=orthogonalEdgeStyle;rounded=0;orthogonalLoop=1;jettySize=auto;html=1;" edge="1" parent="1" source="89ghsDv7PfAujkezo9FC-3">
          <mxGeometry relative="1" as="geometry">
            <mxPoint x="190" y="362" as="targetPoint" />
          </mxGeometry>
        </mxCell>
        <mxCell id="89ghsDv7PfAujkezo9FC-3" value="$$q_2$$" style="ellipse;whiteSpace=wrap;html=1;" vertex="1" parent="1">
          <mxGeometry x="40" y="322" width="80" height="80" as="geometry" />
        </mxCell>
        <mxCell id="89ghsDv7PfAujkezo9FC-4" value="" style="rounded=0;whiteSpace=wrap;html=1;" vertex="1" parent="1">
          <mxGeometry x="200" y="82" width="80" height="80" as="geometry" />
        </mxCell>
        <mxCell id="89ghsDv7PfAujkezo9FC-13" style="edgeStyle=orthogonalEdgeStyle;rounded=0;orthogonalLoop=1;jettySize=auto;html=1;entryX=0;entryY=0.5;entryDx=0;entryDy=0;" edge="1" parent="1" source="89ghsDv7PfAujkezo9FC-5" target="89ghsDv7PfAujkezo9FC-7">
          <mxGeometry relative="1" as="geometry">
            <Array as="points">
              <mxPoint x="500" y="122" />
              <mxPoint x="500" y="122" />
            </Array>
          </mxGeometry>
        </mxCell>
        <mxCell id="89ghsDv7PfAujkezo9FC-21" style="edgeStyle=orthogonalEdgeStyle;rounded=0;orthogonalLoop=1;jettySize=auto;html=1;" edge="1" parent="1" source="89ghsDv7PfAujkezo9FC-5">
          <mxGeometry relative="1" as="geometry">
            <mxPoint x="520" y="242" as="targetPoint" />
            <Array as="points">
              <mxPoint x="500" y="242" />
              <mxPoint x="500" y="242" />
            </Array>
          </mxGeometry>
        </mxCell>
        <mxCell id="89ghsDv7PfAujkezo9FC-5" value="" style="rounded=0;whiteSpace=wrap;html=1;" vertex="1" parent="1">
          <mxGeometry x="360" y="82" width="80" height="200" as="geometry" />
        </mxCell>
        <mxCell id="89ghsDv7PfAujkezo9FC-22" style="edgeStyle=orthogonalEdgeStyle;rounded=0;orthogonalLoop=1;jettySize=auto;html=1;entryX=0;entryY=0.5;entryDx=0;entryDy=0;" edge="1" parent="1" source="89ghsDv7PfAujkezo9FC-6" target="89ghsDv7PfAujkezo9FC-8">
          <mxGeometry relative="1" as="geometry">
            <Array as="points">
              <mxPoint x="620" y="242" />
              <mxPoint x="620" y="242" />
            </Array>
          </mxGeometry>
        </mxCell>
        <mxCell id="89ghsDv7PfAujkezo9FC-32" style="edgeStyle=orthogonalEdgeStyle;rounded=0;orthogonalLoop=1;jettySize=auto;html=1;entryX=0;entryY=0.5;entryDx=0;entryDy=0;" edge="1" parent="1" source="89ghsDv7PfAujkezo9FC-6" target="89ghsDv7PfAujkezo9FC-9">
          <mxGeometry relative="1" as="geometry">
            <Array as="points">
              <mxPoint x="620" y="362" />
              <mxPoint x="620" y="362" />
            </Array>
          </mxGeometry>
        </mxCell>
        <mxCell id="89ghsDv7PfAujkezo9FC-6" value="" style="rounded=0;whiteSpace=wrap;html=1;" vertex="1" parent="1">
          <mxGeometry x="520" y="202" width="80" height="200" as="geometry" />
        </mxCell>
        <mxCell id="89ghsDv7PfAujkezo9FC-7" value="$$q_0$$" style="ellipse;whiteSpace=wrap;html=1;" vertex="1" parent="1">
          <mxGeometry x="680" y="82" width="80" height="80" as="geometry" />
        </mxCell>
        <mxCell id="89ghsDv7PfAujkezo9FC-8" value="$$q_1$$" style="ellipse;whiteSpace=wrap;html=1;" vertex="1" parent="1">
          <mxGeometry x="680" y="202" width="80" height="80" as="geometry" />
        </mxCell>
        <mxCell id="89ghsDv7PfAujkezo9FC-9" value="$$q_2$$" style="ellipse;whiteSpace=wrap;html=1;" vertex="1" parent="1">
          <mxGeometry x="680" y="322" width="80" height="80" as="geometry" />
        </mxCell>
        <mxCell id="89ghsDv7PfAujkezo9FC-11" style="edgeStyle=orthogonalEdgeStyle;rounded=0;orthogonalLoop=1;jettySize=auto;html=1;entryX=-0.012;entryY=0.2;entryDx=0;entryDy=0;entryPerimeter=0;" edge="1" parent="1" source="89ghsDv7PfAujkezo9FC-4" target="89ghsDv7PfAujkezo9FC-5">
          <mxGeometry relative="1" as="geometry" />
        </mxCell>
        <mxCell id="89ghsDv7PfAujkezo9FC-15" value="" style="endArrow=none;dashed=1;html=1;dashPattern=1 3;strokeWidth=2;rounded=0;entryX=1;entryY=0.5;entryDx=0;entryDy=0;" edge="1" parent="1" target="89ghsDv7PfAujkezo9FC-4">
          <mxGeometry width="50" height="50" relative="1" as="geometry">
            <mxPoint x="200" y="122" as="sourcePoint" />
            <mxPoint x="250" y="72" as="targetPoint" />
          </mxGeometry>
        </mxCell>
        <mxCell id="89ghsDv7PfAujkezo9FC-16" value="" style="endArrow=none;dashed=1;html=1;dashPattern=1 3;strokeWidth=2;rounded=0;entryX=1;entryY=0.5;entryDx=0;entryDy=0;" edge="1" parent="1" source="89ghsDv7PfAujkezo9FC-40">
          <mxGeometry width="50" height="50" relative="1" as="geometry">
            <mxPoint x="360" y="121.80000000000001" as="sourcePoint" />
            <mxPoint x="440" y="121.80000000000001" as="targetPoint" />
          </mxGeometry>
        </mxCell>
        <mxCell id="89ghsDv7PfAujkezo9FC-17" value="" style="endArrow=none;dashed=1;html=1;dashPattern=1 3;strokeWidth=2;rounded=0;entryX=1;entryY=0.5;entryDx=0;entryDy=0;" edge="1" parent="1">
          <mxGeometry width="50" height="50" relative="1" as="geometry">
            <mxPoint x="360" y="241.79999999999995" as="sourcePoint" />
            <mxPoint x="440" y="241.79999999999995" as="targetPoint" />
          </mxGeometry>
        </mxCell>
        <mxCell id="89ghsDv7PfAujkezo9FC-20" value="" style="endArrow=none;dashed=1;html=1;dashPattern=1 3;strokeWidth=2;rounded=0;entryX=1;entryY=0.5;entryDx=0;entryDy=0;" edge="1" parent="1">
          <mxGeometry width="50" height="50" relative="1" as="geometry">
            <mxPoint x="520" y="241.79999999999995" as="sourcePoint" />
            <mxPoint x="600" y="241.79999999999995" as="targetPoint" />
          </mxGeometry>
        </mxCell>
        <mxCell id="89ghsDv7PfAujkezo9FC-30" style="edgeStyle=orthogonalEdgeStyle;rounded=0;orthogonalLoop=1;jettySize=auto;html=1;" edge="1" parent="1" source="89ghsDv7PfAujkezo9FC-25">
          <mxGeometry relative="1" as="geometry">
            <mxPoint x="360" y="362" as="targetPoint" />
          </mxGeometry>
        </mxCell>
        <mxCell id="89ghsDv7PfAujkezo9FC-25" value="" style="rounded=0;whiteSpace=wrap;html=1;" vertex="1" parent="1">
          <mxGeometry x="200" y="322" width="80" height="80" as="geometry" />
        </mxCell>
        <mxCell id="89ghsDv7PfAujkezo9FC-26" value="" style="endArrow=none;dashed=1;html=1;dashPattern=1 3;strokeWidth=2;rounded=0;entryX=1;entryY=0.5;entryDx=0;entryDy=0;" edge="1" parent="1" target="89ghsDv7PfAujkezo9FC-25">
          <mxGeometry width="50" height="50" relative="1" as="geometry">
            <mxPoint x="190" y="362" as="sourcePoint" />
            <mxPoint x="240" y="312" as="targetPoint" />
          </mxGeometry>
        </mxCell>
        <mxCell id="89ghsDv7PfAujkezo9FC-27" value="" style="rounded=0;whiteSpace=wrap;html=1;" vertex="1" parent="1">
          <mxGeometry x="360" y="322" width="80" height="80" as="geometry" />
        </mxCell>
        <mxCell id="89ghsDv7PfAujkezo9FC-28" value="" style="endArrow=none;dashed=1;html=1;dashPattern=1 3;strokeWidth=2;rounded=0;entryX=1;entryY=0.5;entryDx=0;entryDy=0;" edge="1" parent="1" target="89ghsDv7PfAujkezo9FC-27">
          <mxGeometry width="50" height="50" relative="1" as="geometry">
            <mxPoint x="360" y="362" as="sourcePoint" />
            <mxPoint x="410" y="312" as="targetPoint" />
          </mxGeometry>
        </mxCell>
        <mxCell id="89ghsDv7PfAujkezo9FC-31" style="edgeStyle=orthogonalEdgeStyle;rounded=0;orthogonalLoop=1;jettySize=auto;html=1;entryX=-0.03;entryY=0.798;entryDx=0;entryDy=0;entryPerimeter=0;" edge="1" parent="1" source="89ghsDv7PfAujkezo9FC-27" target="89ghsDv7PfAujkezo9FC-6">
          <mxGeometry relative="1" as="geometry" />
        </mxCell>
        <mxCell id="89ghsDv7PfAujkezo9FC-33" value="" style="endArrow=none;dashed=1;html=1;dashPattern=1 3;strokeWidth=2;rounded=0;entryX=1;entryY=0.5;entryDx=0;entryDy=0;" edge="1" parent="1">
          <mxGeometry width="50" height="50" relative="1" as="geometry">
            <mxPoint x="520" y="361.79999999999995" as="sourcePoint" />
            <mxPoint x="600" y="361.79999999999995" as="targetPoint" />
          </mxGeometry>
        </mxCell>
        <mxCell id="89ghsDv7PfAujkezo9FC-35" value="$$X$$" style="whiteSpace=wrap;html=1;aspect=fixed;" vertex="1" parent="1">
          <mxGeometry x="220" y="102" width="40" height="40" as="geometry" />
        </mxCell>
        <mxCell id="89ghsDv7PfAujkezo9FC-36" value="$$H$$" style="whiteSpace=wrap;html=1;aspect=fixed;" vertex="1" parent="1">
          <mxGeometry x="220" y="342" width="40" height="40" as="geometry" />
        </mxCell>
        <mxCell id="89ghsDv7PfAujkezo9FC-37" value="$$H$$" style="whiteSpace=wrap;html=1;aspect=fixed;" vertex="1" parent="1">
          <mxGeometry x="380" y="342" width="40" height="40" as="geometry" />
        </mxCell>
        <mxCell id="89ghsDv7PfAujkezo9FC-38" value="$$X$$" style="whiteSpace=wrap;html=1;aspect=fixed;" vertex="1" parent="1">
          <mxGeometry x="380" y="222" width="40" height="40" as="geometry" />
        </mxCell>
        <mxCell id="89ghsDv7PfAujkezo9FC-39" value="$$X$$" style="whiteSpace=wrap;html=1;aspect=fixed;" vertex="1" parent="1">
          <mxGeometry x="540" y="342" width="40" height="40" as="geometry" />
        </mxCell>
        <mxCell id="89ghsDv7PfAujkezo9FC-41" value="" style="endArrow=none;dashed=1;html=1;dashPattern=1 3;strokeWidth=2;rounded=0;entryX=1;entryY=0.5;entryDx=0;entryDy=0;" edge="1" parent="1" target="89ghsDv7PfAujkezo9FC-40">
          <mxGeometry width="50" height="50" relative="1" as="geometry">
            <mxPoint x="360" y="121.80000000000001" as="sourcePoint" />
            <mxPoint x="440" y="121.80000000000001" as="targetPoint" />
          </mxGeometry>
        </mxCell>
        <mxCell id="89ghsDv7PfAujkezo9FC-42" style="edgeStyle=orthogonalEdgeStyle;rounded=0;orthogonalLoop=1;jettySize=auto;html=1;entryX=0.5;entryY=0;entryDx=0;entryDy=0;endArrow=none;endFill=0;" edge="1" parent="1" source="89ghsDv7PfAujkezo9FC-40" target="89ghsDv7PfAujkezo9FC-38">
          <mxGeometry relative="1" as="geometry" />
        </mxCell>
        <mxCell id="89ghsDv7PfAujkezo9FC-40" value="" style="ellipse;whiteSpace=wrap;html=1;aspect=fixed;" vertex="1" parent="1">
          <mxGeometry x="395" y="117" width="10" height="10" as="geometry" />
        </mxCell>
        <mxCell id="89ghsDv7PfAujkezo9FC-43" style="edgeStyle=orthogonalEdgeStyle;rounded=0;orthogonalLoop=1;jettySize=auto;html=1;entryX=0.5;entryY=0;entryDx=0;entryDy=0;endArrow=none;endFill=0;" edge="1" parent="1" source="89ghsDv7PfAujkezo9FC-44">
          <mxGeometry relative="1" as="geometry">
            <mxPoint x="560" y="342" as="targetPoint" />
          </mxGeometry>
        </mxCell>
        <mxCell id="89ghsDv7PfAujkezo9FC-44" value="" style="ellipse;whiteSpace=wrap;html=1;aspect=fixed;" vertex="1" parent="1">
          <mxGeometry x="555" y="237" width="10" height="10" as="geometry" />
        </mxCell>
        <mxCell id="89ghsDv7PfAujkezo9FC-47" value="Input nodes" style="text;html=1;align=center;verticalAlign=middle;resizable=0;points=[];autosize=1;strokeColor=none;fillColor=none;" vertex="1" parent="1">
          <mxGeometry x="35" y="10" width="90" height="30" as="geometry" />
        </mxCell>
        <mxCell id="89ghsDv7PfAujkezo9FC-48" value="Output nodes" style="text;html=1;align=center;verticalAlign=middle;resizable=0;points=[];autosize=1;strokeColor=none;fillColor=none;" vertex="1" parent="1">
          <mxGeometry x="665" y="10" width="100" height="30" as="geometry" />
        </mxCell>
      </root>
    </mxGraphModel>
  </diagram>
</mxfile>
